<?xml version="1.0" encoding="utf-8"?>
<svg version="1.1" xmlns:xlink="http://www.w3.org/1999/xlink" width="72px" height="36px" xmlns="http://www.w3.org/2000/svg">
  <g transform="matrix(1 0 0 1 -394 -42 )">
    <path d="M 395 46  A 3 3 0 0 1 398 43 L 462 43  A 3 3 0 0 1 465 46 L 465 74  A 3 3 0 0 1 462 77 L 398 77  A 3 3 0 0 1 395 74 L 395 46  Z " fill-rule="nonzero" fill="#ffffff" stroke="none" />
    <path d="M 394.5 46  A 3.5 3.5 0 0 1 398 42.5 L 462 42.5  A 3.5 3.5 0 0 1 465.5 46 L 465.5 74  A 3.5 3.5 0 0 1 462 77.5 L 398 77.5  A 3.5 3.5 0 0 1 394.5 74 L 394.5 46  Z " stroke-width="1" stroke="#7f7f7f" fill="none" stroke-opacity="0.996078431372549" />
  </g>
</svg>