<?xml version="1.0" encoding="utf-8"?>
<svg version="1.1" xmlns:xlink="http://www.w3.org/1999/xlink" width="75px" height="36px" xmlns="http://www.w3.org/2000/svg">
  <g transform="matrix(1 0 0 1 -29 -216 )">
    <path d="M 30 220  A 3 3 0 0 1 33 217 L 100 217  A 3 3 0 0 1 103 220 L 103 248  A 3 3 0 0 1 100 251 L 33 251  A 3 3 0 0 1 30 248 L 30 220  Z " fill-rule="nonzero" fill="#ffffff" stroke="none" />
    <path d="M 29.5 220  A 3.5 3.5 0 0 1 33 216.5 L 100 216.5  A 3.5 3.5 0 0 1 103.5 220 L 103.5 248  A 3.5 3.5 0 0 1 100 251.5 L 33 251.5  A 3.5 3.5 0 0 1 29.5 248 L 29.5 220  Z " stroke-width="1" stroke="#7f7f7f" fill="none" stroke-opacity="0.996078431372549" />
  </g>
</svg>