<?xml version="1.0" encoding="utf-8"?>
<svg version="1.1" xmlns:xlink="http://www.w3.org/1999/xlink" width="60px" height="36px" xmlns="http://www.w3.org/2000/svg">
  <g transform="matrix(1 0 0 1 -350 -124 )">
    <path d="M 351 128  A 3 3 0 0 1 354 125 L 406 125  A 3 3 0 0 1 409 128 L 409 156  A 3 3 0 0 1 406 159 L 354 159  A 3 3 0 0 1 351 156 L 351 128  Z " fill-rule="nonzero" fill="#ffffff" stroke="none" />
    <path d="M 350.5 128  A 3.5 3.5 0 0 1 354 124.5 L 406 124.5  A 3.5 3.5 0 0 1 409.5 128 L 409.5 156  A 3.5 3.5 0 0 1 406 159.5 L 354 159.5  A 3.5 3.5 0 0 1 350.5 156 L 350.5 128  Z " stroke-width="1" stroke="#7f7f7f" fill="none" stroke-opacity="0.996078431372549" />
  </g>
</svg>