<?xml version="1.0" encoding="utf-8"?>
<svg version="1.1" xmlns:xlink="http://www.w3.org/1999/xlink" width="75px" height="36px" xmlns="http://www.w3.org/2000/svg">
  <g transform="matrix(1 0 0 1 -126 -214 )">
    <path d="M 127 218  A 3 3 0 0 1 130 215 L 197 215  A 3 3 0 0 1 200 218 L 200 246  A 3 3 0 0 1 197 249 L 130 249  A 3 3 0 0 1 127 246 L 127 218  Z " fill-rule="nonzero" fill="#ffffff" stroke="none" />
    <path d="M 126.5 218  A 3.5 3.5 0 0 1 130 214.5 L 197 214.5  A 3.5 3.5 0 0 1 200.5 218 L 200.5 246  A 3.5 3.5 0 0 1 197 249.5 L 130 249.5  A 3.5 3.5 0 0 1 126.5 246 L 126.5 218  Z " stroke-width="1" stroke="#7f7f7f" fill="none" stroke-opacity="0.996078431372549" />
  </g>
</svg>