<?xml version="1.0" encoding="utf-8"?>
<svg version="1.1" xmlns:xlink="http://www.w3.org/1999/xlink" width="111px" height="36px" xmlns="http://www.w3.org/2000/svg">
  <g transform="matrix(1 0 0 1 -457 -216 )">
    <path d="M 458 220  A 3 3 0 0 1 461 217 L 564 217  A 3 3 0 0 1 567 220 L 567 248  A 3 3 0 0 1 564 251 L 461 251  A 3 3 0 0 1 458 248 L 458 220  Z " fill-rule="nonzero" fill="#ffffff" stroke="none" />
    <path d="M 457.5 220  A 3.5 3.5 0 0 1 461 216.5 L 564 216.5  A 3.5 3.5 0 0 1 567.5 220 L 567.5 248  A 3.5 3.5 0 0 1 564 251.5 L 461 251.5  A 3.5 3.5 0 0 1 457.5 248 L 457.5 220  Z " stroke-width="1" stroke="#7f7f7f" fill="none" stroke-opacity="0.996078431372549" />
  </g>
</svg>