<?xml version="1.0" encoding="utf-8"?>
<svg version="1.1" xmlns:xlink="http://www.w3.org/1999/xlink" width="135px" height="36px" xmlns="http://www.w3.org/2000/svg">
  <g transform="matrix(1 0 0 1 -569 -285 )">
    <path d="M 570 289  A 3 3 0 0 1 573 286 L 700 286  A 3 3 0 0 1 703 289 L 703 317  A 3 3 0 0 1 700 320 L 573 320  A 3 3 0 0 1 570 317 L 570 289  Z " fill-rule="nonzero" fill="#5ec468" stroke="none" />
    <path d="M 569.5 289  A 3.5 3.5 0 0 1 573 285.5 L 700 285.5  A 3.5 3.5 0 0 1 703.5 289 L 703.5 317  A 3.5 3.5 0 0 1 700 320.5 L 573 320.5  A 3.5 3.5 0 0 1 569.5 317 L 569.5 289  Z " stroke-width="1" stroke="#7f7f7f" fill="none" stroke-opacity="0.996078431372549" />
  </g>
</svg>